HIERARCHY
ROOT hips
{
	OFFSET 0.000000 104.274902 0.000000
	CHANNELS 6 Xposition Yposition Zposition Xrotation Yrotation Zrotation
	JOINT spine
	{
		OFFSET 0.000000 10.181549 0.131524
		CHANNELS 6 Xposition Yposition Zposition Xrotation Yrotation Zrotation
		JOINT chest
		{
			OFFSET 0.000000 9.893990 -1.470706
			CHANNELS 3 Xrotation Yrotation Zrotation
			JOINT upperChest
			{
				OFFSET 0.000000 9.220787 -1.370637
				CHANNELS 3 Xrotation Yrotation Zrotation
				JOINT neck
				{
					OFFSET 0.000000 16.740372 -2.049022
					CHANNELS 6 Xposition Yposition Zposition Xrotation Yrotation Zrotation
					JOINT head
					{
						OFFSET 0.000000 9.617859 1.684976
						CHANNELS 6 Xposition Yposition Zposition Xrotation Yrotation Zrotation
						JOINT headEnd
						{
							OFFSET 0.000000 22.037384 7.501072
							CHANNELS 6 Xposition Yposition Zposition Xrotation Yrotation Zrotation
							End Site
							{
								OFFSET 0.000000 23.106567 -2.828246
							}
						}
					}
				}
				JOINT rightShoulder
				{
					OFFSET -4.570000 11.014877 -2.160840
					CHANNELS 6 Xposition Yposition Zposition Xrotation Yrotation Zrotation
					JOINT rightUpperArm
					{
						OFFSET -10.592867 -0.524796 -2.232105
						CHANNELS 3 Xrotation Yrotation Zrotation
						JOINT rightLowerArm
						{
							OFFSET -27.841497 0.000000 -0.000002
							CHANNELS 3 Xrotation Yrotation Zrotation
							JOINT rightHand
							{
								OFFSET -28.328812 0.000000 -0.000001
								CHANNELS 3 Xrotation Yrotation Zrotation
								JOINT rightThumbProximal
								{
									OFFSET -2.464798 -1.573990 2.681911
									CHANNELS 6 Xposition Yposition Zposition Xrotation Yrotation Zrotation
									JOINT rightThumbIntermediate
									{
										OFFSET -3.244781 -1.873383 1.873376
										CHANNELS 3 Xrotation Yrotation Zrotation
										JOINT rightThumbDistal
										{
											OFFSET -2.646263 -1.527817 1.527818
											CHANNELS 6 Xposition Yposition Zposition Xrotation Yrotation Zrotation
											JOINT rightHandThumb4
											{
												OFFSET -1.994591 -1.151581 1.151575
												CHANNELS 6 Xposition Yposition Zposition Xrotation Yrotation Zrotation
												End Site
												{
													OFFSET -1.860176 -1.142715 1.365483
												}
											}
										}
									}
								}
								JOINT rightIndexProximal
								{
									OFFSET -9.108299 -0.517883 2.259803
									CHANNELS 6 Xposition Yposition Zposition Xrotation Yrotation Zrotation
									JOINT rightIndexIntermediate
									{
										OFFSET -3.699997 0.000000 0.000000
										CHANNELS 3 Xrotation Yrotation Zrotation
										JOINT rightIndexDistal
										{
											OFFSET -2.850006 0.000000 0.000000
											CHANNELS 3 Xrotation Yrotation Zrotation
											JOINT rightHandIndex4
											{
												OFFSET -2.772194 0.000000 0.000000
												CHANNELS 3 Xrotation Yrotation Zrotation
												End Site
												{
													OFFSET -2.772202 0.000000 -0.000484
												}
											}
										}
									}
								}
								JOINT rightMiddleProximal
								{
									OFFSET -9.532501 0.000000 -0.000000
									CHANNELS 6 Xposition Yposition Zposition Xrotation Yrotation Zrotation
									JOINT rightMiddleIntermediate
									{
										OFFSET -3.699997 0.000000 0.000000
										CHANNELS 3 Xrotation Yrotation Zrotation
										JOINT rightMiddleDistal
										{
											OFFSET -2.949997 0.000000 0.000000
											CHANNELS 3 Xrotation Yrotation Zrotation
											JOINT rightHandMiddle4
											{
												OFFSET -2.946594 0.000000 0.000000
												CHANNELS 3 Xrotation Yrotation Zrotation
												End Site
												{
													OFFSET -2.946602 0.000000 -0.000982
												}
											}
										}
									}
								}
								JOINT rightRingProximal
								{
									OFFSET -9.103600 -0.043106 -1.865100
									CHANNELS 6 Xposition Yposition Zposition Xrotation Yrotation Zrotation
									JOINT rightRingIntermediate
									{
										OFFSET -3.379303 0.000000 0.000000
										CHANNELS 3 Xrotation Yrotation Zrotation
										JOINT rightRingDistal
										{
											OFFSET -2.889694 0.000000 0.000000
											CHANNELS 3 Xrotation Yrotation Zrotation
											JOINT rightHandRing4
											{
												OFFSET -2.638802 0.000000 0.000000
												CHANNELS 3 Xrotation Yrotation Zrotation
												End Site
												{
													OFFSET -2.638802 0.000000 0.004218
												}
											}
										}
									}
								}
								JOINT rightLittleProximal
								{
									OFFSET -8.076698 -0.486725 -3.806299
									CHANNELS 6 Xposition Yposition Zposition Xrotation Yrotation Zrotation
									JOINT rightLittleIntermediate
									{
										OFFSET -3.600006 0.000000 0.000000
										CHANNELS 3 Xrotation Yrotation Zrotation
										JOINT rightLittleDistal
										{
											OFFSET -2.099998 0.000000 0.000000
											CHANNELS 3 Xrotation Yrotation Zrotation
											JOINT rightHandPinky4
											{
												OFFSET -2.115791 0.000000 0.000000
												CHANNELS 3 Xrotation Yrotation Zrotation
												End Site
												{
													OFFSET -2.115799 0.000000 0.000174
												}
											}
										}
									}
								}
							}
						}
					}
				}
				JOINT leftShoulder
				{
					OFFSET 4.570400 11.014679 -2.160816
					CHANNELS 6 Xposition Yposition Zposition Xrotation Yrotation Zrotation
					JOINT leftUpperArm
					{
						OFFSET 10.592373 -0.524597 -2.232116
						CHANNELS 3 Xrotation Yrotation Zrotation
						JOINT leftLowerArm
						{
							OFFSET 27.841488 0.000000 0.000001
							CHANNELS 3 Xrotation Yrotation Zrotation
							JOINT leftHand
							{
								OFFSET 28.328808 0.000000 -0.000000
								CHANNELS 3 Xrotation Yrotation Zrotation
								JOINT leftThumbProximal
								{
									OFFSET 2.466103 -1.576202 2.681698
									CHANNELS 6 Xposition Yposition Zposition Xrotation Yrotation Zrotation
									JOINT leftThumbIntermediate
									{
										OFFSET 3.243317 -1.872528 1.872530
										CHANNELS 3 Xrotation Yrotation Zrotation
										JOINT leftThumbDistal
										{
											OFFSET 2.647881 -1.528763 1.528754
											CHANNELS 6 Xposition Yposition Zposition Xrotation Yrotation Zrotation
											JOINT leftHandThumb4
											{
												OFFSET 1.998924 -1.154083 1.154080
												CHANNELS 6 Xposition Yposition Zposition Xrotation Yrotation Zrotation
												End Site
												{
													OFFSET 1.884041 -1.149155 1.337651
												}
											}
										}
									}
								}
								JOINT leftIndexProximal
								{
									OFFSET 9.109299 -0.518005 2.259900
									CHANNELS 6 Xposition Yposition Zposition Xrotation Yrotation Zrotation
									JOINT leftIndexIntermediate
									{
										OFFSET 3.699997 0.000000 0.000000
										CHANNELS 3 Xrotation Yrotation Zrotation
										JOINT leftIndexDistal
										{
											OFFSET 2.850006 0.000000 0.000000
											CHANNELS 3 Xrotation Yrotation Zrotation
											JOINT leftHandIndex4
											{
												OFFSET 2.774895 0.000000 0.000000
												CHANNELS 3 Xrotation Yrotation Zrotation
												End Site
												{
													OFFSET 2.774902 0.000000 -0.000072
												}
											}
										}
									}
								}
								JOINT leftMiddleProximal
								{
									OFFSET 9.533401 0.000000 0.000000
									CHANNELS 6 Xposition Yposition Zposition Xrotation Yrotation Zrotation
									JOINT leftMiddleIntermediate
									{
										OFFSET 3.699997 0.000000 0.000000
										CHANNELS 3 Xrotation Yrotation Zrotation
										JOINT leftMiddleDistal
										{
											OFFSET 2.949997 0.000000 0.000000
											CHANNELS 3 Xrotation Yrotation Zrotation
											JOINT leftHandMiddle4
											{
												OFFSET 2.952896 0.000000 0.000000
												CHANNELS 3 Xrotation Yrotation Zrotation
												End Site
												{
													OFFSET 2.952904 0.000000 0.000165
												}
											}
										}
									}
								}
								JOINT leftRingProximal
								{
									OFFSET 9.104500 -0.042999 -1.865101
									CHANNELS 6 Xposition Yposition Zposition Xrotation Yrotation Zrotation
									JOINT leftRingIntermediate
									{
										OFFSET 3.149994 0.000000 0.000000
										CHANNELS 3 Xrotation Yrotation Zrotation
										JOINT leftRingDistal
										{
											OFFSET 2.950005 0.000000 0.000000
											CHANNELS 3 Xrotation Yrotation Zrotation
											JOINT leftHandRing4
											{
												OFFSET 2.644302 0.000000 0.000000
												CHANNELS 3 Xrotation Yrotation Zrotation
												End Site
												{
													OFFSET 2.644302 0.000000 0.000083
												}
											}
										}
									}
								}
								JOINT leftLittleProximal
								{
									OFFSET 8.077805 -0.486893 -3.806302
									CHANNELS 6 Xposition Yposition Zposition Xrotation Yrotation Zrotation
									JOINT leftLittleIntermediate
									{
										OFFSET 3.600006 0.000000 0.000000
										CHANNELS 3 Xrotation Yrotation Zrotation
										JOINT leftLittleDistal
										{
											OFFSET 2.099998 0.000000 0.000000
											CHANNELS 3 Xrotation Yrotation Zrotation
											JOINT leftHandPinky4
											{
												OFFSET 2.125496 0.000000 0.000000
												CHANNELS 3 Xrotation Yrotation Zrotation
												End Site
												{
													OFFSET 2.125504 0.000000 -0.001254
												}
											}
										}
									}
								}
							}
						}
					}
				}
			}
		}
	}
	JOINT rightUpperLeg
	{
		OFFSET -8.207800 -6.751701 -1.599544
		CHANNELS 6 Xposition Yposition Zposition Xrotation Yrotation Zrotation
		JOINT rightLowerLeg
		{
			OFFSET 0.000004 -44.370152 0.345934
			CHANNELS 3 Xrotation Yrotation Zrotation
			JOINT rightFoot
			{
				OFFSET 0.000004 -44.423664 -3.043535
				CHANNELS 3 Xrotation Yrotation Zrotation
				JOINT rightToes
				{
					OFFSET 0.000001 -8.728691 10.710592
					CHANNELS 3 Xrotation Yrotation Zrotation
					JOINT rightToesEnd
					{
						OFFSET 0.000000 -0.000665 9.278101
						CHANNELS 3 Xrotation Yrotation Zrotation
						End Site
						{
							OFFSET 0.000000 -0.000665 9.278103
						}
					}
				}
			}
		}
	}
	JOINT leftUpperLeg
	{
		OFFSET 8.207800 -6.751701 -1.599544
		CHANNELS 6 Xposition Yposition Zposition Xrotation Yrotation Zrotation
		JOINT leftLowerLeg
		{
			OFFSET 0.000004 -44.370037 0.346940
			CHANNELS 3 Xrotation Yrotation Zrotation
			JOINT leftFoot
			{
				OFFSET 0.000004 -44.423611 -3.044388
				CHANNELS 3 Xrotation Yrotation Zrotation
				JOINT leftToes
				{
					OFFSET 0.000001 -8.728690 10.710592
					CHANNELS 3 Xrotation Yrotation Zrotation
					JOINT leftToesEnd
					{
						OFFSET 0.000000 -0.000680 9.278101
						CHANNELS 3 Xrotation Yrotation Zrotation
						End Site
						{
							OFFSET 0.000000 -0.000680 9.278101
						}
					}
				}
			}
		}
	}
}
MOTION
Frames: 4
Frame Time: 0.033333
-0.882424 90.322830 1.734465 -6.441749 -31.104787 8.710493 0.000000 10.181560 0.131526 7.062136 7.646644 -5.658301 13.940878 0.504496 -3.678761 13.988127 0.676700 -3.528232 0.000001 16.740366 -2.049031 -8.196318 -0.181737 0.621517 0.000001 9.617863 1.684972 -18.763732 -0.752064 2.256235 -0.000000 22.037384 7.501077 -0.000000 -0.000000 0.000000 -4.570000 11.014882 -2.160850 1.888055 13.713254 0.187088 -40.721769 63.326481 71.886033 -0.000001 16.334674 0.000015 -50.273993 10.751018 -11.055672 -2.464798 -1.573998 2.681911 4.128735 -12.588728 -13.754743 5.287866 -15.854776 -0.724285 -2.646271 -1.527798 1.527817 -0.666969 -6.541301 -2.798784 -1.994587 -1.151585 1.151583 0.000002 -0.000007 0.000002 -9.108315 -0.517890 2.259802 0.016745 -0.483416 3.969974 0.067002 -0.964815 7.943093 0.100914 -1.182783 9.753924 0.000002 0.000001 0.000001 -9.532506 0.000015 -0.000002 0.039009 -0.737017 6.059332 0.087399 -1.101218 9.075260 0.116389 -1.269457 10.476671 -0.000000 0.000004 0.000002 -9.103612 -0.043098 -1.865107 0.079928 -1.053342 8.677495 0.116521 -1.270201 10.482933 0.137159 -1.377005 11.375934 0.000001 0.000002 0.000002 -8.076710 -0.486711 -3.806303 0.123339 -1.306453 10.785752 0.142100 -1.401378 11.580187 0.155324 -1.464359 12.108533 -0.000001 0.000003 0.000001 4.570401 11.014664 -2.160821 3.141311 -15.863051 11.656271 -2.481184 -24.081203 -33.028643 0.000004 -18.627859 -0.000001 27.994956 -5.591765 2.144239 2.466102 -1.576200 2.681696 0.287342 18.364451 -3.895187 4.562233 15.542743 1.314990 2.647890 -1.528747 1.528752 0.142314 9.653357 3.312638 1.998917 -1.154085 1.154066 -0.000000 0.000002 0.000003 9.109303 -0.518018 2.259898 0.587134 2.787038 -23.789948 0.617410 2.854618 -24.404841 0.628644 2.879240 -24.629580 -0.000001 0.000004 0.000001 9.533403 0.000017 -0.000009 0.716600 3.063566 -26.326131 0.840356 3.301555 -28.555307 0.913428 3.432220 -29.799685 -0.000001 0.000006 0.000001 9.104516 -0.042978 -1.865109 0.899809 3.408358 -29.571150 1.155943 3.823836 -33.630376 1.340766 4.087494 -36.309443 0.000003 -0.000003 -0.000005 8.077804 -0.486875 -3.806316 3.222311 7.116191 -31.888763 1.451488 0.147751 -38.032559 1.737559 4.577258 -41.558358 -0.000001 -0.000003 -0.000001 -8.207802 -6.751707 -1.599543 -40.989430 -6.971978 -17.061736 66.578751 0.333667 -4.930688 -17.855950 -16.989995 2.694846 -1.905755 0.037267 -1.401555 0.000000 0.000002 -0.000000 8.207799 -6.751702 -1.599541 -15.831137 20.083669 1.381138 55.216595 9.730173 -0.110045 -26.069688 20.171680 -10.926944 -0.699089 0.000003 -0.000002 -0.000000 -0.000000 0.000000 
-2.927944 89.458740 2.186010 -8.241478 -31.804253 8.040366 0.000004 10.181556 0.131524 8.502460 7.488975 -6.006322 14.502949 0.477408 -3.466341 14.541970 0.640614 -3.314369 -0.000000 16.740379 -2.049025 -8.679372 -0.042896 0.382461 -0.000001 9.617856 1.684975 -20.517371 -0.283561 2.049470 -0.000000 22.037369 7.501070 -0.000001 0.000000 -0.000000 -4.570000 11.014874 -2.160843 1.876730 13.541781 -0.298285 -47.432064 64.858397 76.425767 -0.000005 14.998117 0.000000 -52.965293 9.229887 -10.957242 -2.464790 -1.573999 2.681919 4.119375 -12.656063 -13.767287 5.332163 -16.364722 -0.756929 -2.646269 -1.527786 1.527810 -0.655148 -6.680293 -2.812782 -1.994606 -1.151580 1.151574 -0.000001 -0.000001 0.000003 -9.108287 -0.517885 2.259812 0.021623 -0.548871 4.508646 0.059377 -0.908675 7.478128 0.096129 -1.154534 9.518727 0.000001 0.000003 0.000001 -9.532493 0.000018 0.000005 0.042488 -0.768993 6.323223 0.082443 -1.069773 8.813873 0.113018 -1.251082 10.323397 0.000002 0.000001 -0.000000 -9.103600 -0.043104 -1.865095 0.078489 -1.043857 8.598670 0.116300 -1.268984 10.472683 0.136057 -1.371487 11.329831 -0.000001 0.000004 0.000000 -8.076688 -0.486729 -3.806287 0.115416 -1.264133 10.432217 0.146847 -1.424326 11.772542 0.156277 -1.468812 12.146002 0.000001 0.000001 -0.000001 4.570398 11.014677 -2.160822 3.203607 -16.747475 11.627304 -2.214757 -20.927556 -31.469192 0.000008 -18.569365 -0.000002 30.689785 -6.953844 1.191972 2.466103 -1.576209 2.681691 0.269230 18.261624 -3.904890 4.553724 15.434361 1.307328 2.647891 -1.528743 1.528767 0.137818 9.599251 3.307753 1.998917 -1.154081 1.154077 0.000001 -0.000001 -0.000000 9.109309 -0.518014 2.259893 0.677580 2.983482 -25.586312 0.658447 2.943322 -25.216614 0.674281 2.976613 -25.522955 0.000002 0.000001 0.000000 9.533418 0.000015 -0.000009 0.851448 3.321788 -28.746972 0.901903 3.412040 -29.606620 0.971347 3.531257 -30.753323 0.000001 -0.000002 -0.000002 9.104498 -0.042990 -1.865112 1.099629 3.737991 -32.776596 1.247109 3.957187 -34.974096 1.415509 4.187047 -37.345395 -0.000001 -0.000002 0.000001 8.077806 -0.486890 -3.806310 3.709990 7.345566 -35.761880 1.569167 0.294072 -39.588944 1.827351 4.676258 -42.671446 0.000001 -0.000001 0.000001 -8.207799 -6.751701 -1.599539 -41.967080 -3.911798 -20.634720 67.709858 -3.246250 -3.779082 -18.111476 -18.247894 3.717868 2.968941 0.000002 -0.000001 -0.000000 0.000000 -0.000000 8.207802 -6.751705 -1.599544 -14.053498 21.895691 3.686029 56.526485 9.734588 0.011657 -26.876028 17.700341 -12.881044 -0.803513 0.000003 -0.000002 0.000000 0.000000 0.000000 
-5.042442 88.660324 2.660721 -10.025448 -32.494628 7.249311 0.000001 10.181554 0.131520 9.677343 6.983777 -6.219309 14.744490 0.432737 -3.174502 14.775012 0.585591 -3.032019 0.000001 16.740366 -2.049011 -8.984596 0.331824 -0.166694 -0.000001 9.617813 1.684985 -21.818245 0.944367 1.840910 0.000001 22.037369 7.501076 -0.000000 0.000001 -0.000000 -4.570000 11.014890 -2.160841 1.888936 13.253526 -1.228594 -52.099976 66.247104 78.504343 -0.000010 16.378727 0.000015 -56.986929 6.642827 -12.511437 -2.464794 -1.574007 2.681911 4.151173 -12.426879 -13.724652 5.360155 -16.688095 -0.777475 -2.646269 -1.527811 1.527818 -0.636319 -6.902595 -2.835062 -1.994617 -1.151583 1.151583 0.000001 -0.000006 0.000001 -9.108299 -0.517877 2.259808 0.032920 -0.677129 5.565281 0.056615 -0.887403 7.302075 0.090781 -1.122189 9.249527 0.000002 0.000000 -0.000000 -9.532500 0.000001 0.000002 0.049906 -0.833248 6.854181 0.080508 -1.057159 8.709132 0.109500 -1.231590 10.160764 -0.000000 0.000004 -0.000000 -9.103600 -0.043092 -1.865102 0.076226 -1.028840 8.474074 0.115828 -1.266428 10.451449 0.135499 -1.368692 11.306389 -0.000000 0.000001 0.000001 -8.076693 -0.486734 -3.806295 0.101519 -1.186163 9.782204 0.148044 -1.430082 11.820821 0.158475 -1.478950 12.231116 0.000000 -0.000002 0.000001 4.570400 11.014697 -2.160813 3.122806 -16.751184 11.513530 -1.592897 -16.087988 -30.598360 -0.000004 -18.534342 -0.000006 33.510629 -8.273397 0.322077 2.466092 -1.576194 2.681709 0.255614 18.184438 -3.912197 4.547372 15.353007 1.301598 2.647888 -1.528740 1.528755 0.134403 9.558647 3.304071 1.998919 -1.154086 1.154067 0.000002 -0.000003 0.000005 9.109303 -0.517998 2.259913 0.796862 3.220447 -27.790660 0.696493 3.022675 -25.947709 0.709530 3.049269 -26.193779 0.000001 0.000001 -0.000003 9.533414 0.000005 0.000013 1.008411 3.592676 -31.349902 0.965277 3.521046 -30.654435 1.017395 3.607359 -31.492957 -0.000001 0.000003 0.000000 9.104496 -0.043001 -1.865091 1.310476 4.046046 -35.882214 1.347859 4.097090 -36.408812 1.477042 4.266251 -38.180187 0.000002 -0.000005 -0.000000 8.077805 -0.486905 -3.806287 4.168850 7.526244 -39.306304 1.704041 0.452228 -41.312461 1.903003 4.756743 -43.591428 0.000003 0.000001 -0.000000 -8.207804 -6.751702 -1.599542 -42.349710 -0.998471 -24.516414 65.930525 -6.720361 -3.678842 -16.139928 -17.596434 4.471677 3.684149 0.000003 -0.000009 -0.000000 0.000000 -0.000000 8.207798 -6.751691 -1.599544 -12.169098 23.553388 6.079168 57.427404 9.774214 0.146642 -27.562311 15.173279 -14.909606 -0.903972 0.000015 -0.000002 -0.000000 -0.000000 0.000000 
-7.263613 87.926216 3.202141 -11.691754 -33.185775 6.374996 0.000002 10.181551 0.131526 10.408958 5.972443 -6.027773 14.672715 0.335163 -3.004996 14.696523 0.465773 -2.882528 0.000000 16.740358 -2.049017 -9.216131 0.876494 -0.943421 0.000000 9.617853 1.684967 -22.226078 2.692079 1.684717 -0.000000 22.037369 7.501072 -0.000001 -0.000000 -0.000001 -4.569999 11.014880 -2.160843 1.925489 12.753271 -2.688736 -48.772646 66.936954 72.370485 -0.000001 23.571512 0.000014 -61.927385 3.639040 -15.718868 -2.464796 -1.573990 2.681897 4.198229 -12.084853 -13.661336 5.366361 -16.759797 -0.782006 -2.646255 -1.527821 1.527808 -0.615869 -7.145080 -2.859296 -1.994602 -1.151583 1.151580 -0.000000 -0.000003 0.000001 -9.108302 -0.517887 2.259795 0.052431 -0.854274 7.027962 0.059842 -0.912100 7.506540 0.086347 -1.094632 9.020453 -0.000001 0.000004 0.000000 -9.532496 0.000014 -0.000012 0.061583 -0.925299 7.615836 0.082323 -1.068964 8.807128 0.106638 -1.215556 10.026963 -0.000001 0.000002 0.000002 -9.103597 -0.043101 -1.865112 0.074220 -1.015283 8.361575 0.114909 -1.261387 10.409403 0.135277 -1.367698 11.297877 0.000000 -0.000001 -0.000001 -8.076695 -0.486724 -3.806309 0.085364 -1.088475 8.969291 0.144309 -1.412064 11.669761 0.160757 -1.489559 12.320226 0.000001 -0.000003 -0.000001 4.570400 11.014678 -2.160816 2.859078 -15.546052 11.393408 -0.180898 -9.443547 -30.858733 0.000002 -18.521347 0.000010 35.635829 -9.270695 -0.361968 2.466109 -1.576205 2.681697 0.248825 18.146004 -3.915844 4.544188 15.312471 1.298723 2.647898 -1.528737 1.528743 0.132731 9.538416 3.302254 1.998917 -1.154092 1.154080 0.000001 0.000001 -0.000000 9.109293 -0.518009 2.259899 0.942869 3.483035 -30.287794 0.742460 3.115235 -26.806116 0.733585 3.097599 -26.642287 0.000005 -0.000002 -0.000002 9.533429 0.000006 -0.000002 1.174432 3.851460 -33.906818 1.038876 3.642118 -31.832715 1.052584 3.664064 -32.047753 -0.000000 0.000001 0.000000 9.104515 -0.042996 -1.865106 1.502261 4.298068 -38.518063 1.461940 4.247043 -37.976791 1.529322 4.331747 -38.877645 0.000004 -0.000001 -0.000002 8.077813 -0.486897 -3.806302 4.528854 7.645815 -42.032854 1.854943 0.618396 -43.173892 1.971208 4.827145 -44.408094 -0.000002 -0.000000 -0.000001 -8.207805 -6.751698 -1.599533 -42.053427 1.697707 -28.471307 61.513414 -8.905090 -4.318160 -10.359235 -12.986368 7.236426 3.396972 -0.000008 -0.000002 -0.000000 -0.000001 0.000001 8.207802 -6.751698 -1.599545 -10.108894 24.386383 8.268150 57.931233 9.790163 0.022563 -28.105957 13.343114 -16.917004 -0.909939 -0.000010 0.000002 -0.000000 0.000000 0.000000 
